<svg width="33" height="33" viewBox="0 0 33 33" fill="none" xmlns="http://www.w3.org/2000/svg">
<g clip-path="url(#clip0_756_675)">
<g clip-path="url(#clip1_756_675)">
<path fill-rule="evenodd" clip-rule="evenodd" d="M6.90132 10.9955C6.90132 9.81249 7.86132 8.85249 9.04432 8.85249H12.9253C13.7373 8.85249 14.4793 9.31149 14.8423 10.0375L15.1353 10.6235C15.3845 11.1217 15.7675 11.5407 16.2414 11.8335C16.7152 12.1264 17.2613 12.2815 17.8183 12.2815H23.6163C24.7993 12.2815 25.7593 13.2415 25.7593 14.4245V22.1385C25.7593 23.3225 24.7993 24.2815 23.6163 24.2815H9.04432C8.7629 24.2815 8.48423 24.2261 8.22423 24.1184C7.96423 24.0107 7.72799 23.8528 7.52899 23.6538C7.33 23.4548 7.17214 23.2186 7.06445 22.9586C6.95675 22.6986 6.90132 22.4199 6.90132 22.1385V10.9955ZM9.04432 6.28149C7.79409 6.28149 6.59507 6.77815 5.71102 7.66219C4.82697 8.54624 4.33032 9.74526 4.33032 10.9955V22.1385C4.33032 23.3887 4.82697 24.5877 5.71102 25.4718C6.59507 26.3558 7.79409 26.8525 9.04432 26.8525H23.6163C24.8666 26.8525 26.0656 26.3558 26.9496 25.4718C27.8337 24.5877 28.3303 23.3887 28.3303 22.1385V14.4245C28.3303 13.1743 27.8337 11.9752 26.9496 11.0912C26.0656 10.2071 24.8666 9.71049 23.6163 9.71049H17.8183C17.7388 9.71038 17.6609 9.68815 17.5932 9.6463C17.5256 9.60445 17.4709 9.54462 17.4353 9.47349L17.1423 8.88749C16.7508 8.10434 16.1489 7.44571 15.404 6.98542C14.6592 6.52513 13.8009 6.28139 12.9253 6.28149H9.04532H9.04432ZM16.8103 15.5915C16.4788 15.5915 16.1609 15.7232 15.9264 15.9576C15.692 16.192 15.5603 16.51 15.5603 16.8415C15.5603 17.173 15.692 17.491 15.9264 17.7254C16.1609 17.9598 16.4788 18.0915 16.8103 18.0915H21.6103C21.9418 18.0915 22.2598 17.9598 22.4942 17.7254C22.7286 17.491 22.8603 17.173 22.8603 16.8415C22.8603 16.51 22.7286 16.192 22.4942 15.9576C22.2598 15.7232 21.9418 15.5915 21.6103 15.5915H16.8103Z" fill="black"/>
</g>
</g>
<defs>
<clipPath id="clip0_756_675">
<rect width="32" height="32" fill="white" transform="translate(0.330322 0.281494)"/>
</clipPath>
<clipPath id="clip1_756_675">
<rect width="32" height="32" fill="white" transform="translate(0.330322 0.281494)"/>
</clipPath>
</defs>
</svg>
