<svg width="33" height="33" viewBox="0 0 33 33" fill="none" xmlns="http://www.w3.org/2000/svg">
<g clip-path="url(#clip0_24_135)">
<g clip-path="url(#clip1_24_135)">
<path fill-rule="evenodd" clip-rule="evenodd" d="M5.74987 5.88982C5.74987 5.22182 6.28987 4.68182 6.95787 4.68182H18.2349C20.2149 4.68182 21.9549 5.99182 22.4989 7.89382L23.1879 10.2998C23.2279 10.4378 23.3379 10.5448 23.4779 10.5798L26.1909 11.2568C26.8013 11.4086 27.3435 11.7601 27.7311 12.2555C28.1187 12.751 28.3295 13.3618 28.3299 13.9908V15.9538C28.3299 17.0988 27.6469 18.0838 26.6649 18.5248C26.7585 19.1013 26.7257 19.6912 26.5687 20.2537C26.4118 20.8162 26.1344 21.3379 25.7558 21.7826C25.3772 22.2273 24.9065 22.5843 24.3763 22.829C23.846 23.0738 23.2689 23.2003 22.6849 23.1998C22.1219 23.2002 21.5651 23.0826 21.0503 22.8546C20.5356 22.6266 20.0743 22.2933 19.6963 21.8761C19.3183 21.4589 19.0319 20.9671 18.8557 20.4324C18.6794 19.8977 18.6171 19.332 18.6729 18.7718H13.7939C13.8496 19.332 13.7873 19.8977 13.6111 20.4324C13.4348 20.9671 13.1484 21.4589 12.7704 21.8761C12.3924 22.2933 11.9311 22.6266 11.4164 22.8546C10.9017 23.0826 10.3448 23.2002 9.78187 23.1998C9.1131 23.2002 8.45476 23.0341 7.86622 22.7165C7.27767 22.399 6.77744 21.9399 6.41063 21.3807C6.04382 20.8215 5.82197 20.1798 5.7651 19.5134C5.70823 18.8471 5.81812 18.1771 6.08487 17.5638H5.34587C5.18223 17.572 5.01865 17.5468 4.86504 17.4898C4.71144 17.4328 4.57103 17.3452 4.45233 17.2322C4.33363 17.1193 4.23912 16.9834 4.17454 16.8329C4.10996 16.6823 4.07666 16.5202 4.07666 16.3563C4.07666 16.1925 4.10996 16.0304 4.17454 15.8798C4.23912 15.7292 4.33363 15.5933 4.45233 15.4804C4.57103 15.3675 4.71144 15.2799 4.86504 15.2229C5.01865 15.1659 5.18223 15.1407 5.34587 15.1488H9.37787C9.42687 15.1488 9.47387 15.1518 9.52087 15.1568C10.0998 15.1186 10.6802 15.206 11.2222 15.4131C11.7642 15.6203 12.255 15.9422 12.6609 16.3568H19.8049C20.1802 15.9737 20.6283 15.6695 21.1229 15.462C21.6175 15.2546 22.1485 15.1481 22.6849 15.1488C23.8109 15.1488 24.8289 15.6098 25.5609 16.3528C25.6576 16.34 25.7465 16.2925 25.8108 16.2191C25.8752 16.1457 25.9107 16.0514 25.9109 15.9538V13.9918C25.9106 13.902 25.8804 13.8149 25.8249 13.7442C25.7695 13.6736 25.692 13.6234 25.6049 13.6018L22.8919 12.9238C22.4112 12.8042 21.9704 12.5601 21.6141 12.216C21.2577 11.8719 20.9983 11.44 20.8619 10.9638L20.1739 8.55782C20.0531 8.13689 19.7985 7.76673 19.4487 7.50332C19.0989 7.23991 18.6728 7.09757 18.2349 7.09782H6.95987C6.29187 7.09782 5.74987 6.55682 5.74987 5.88982ZM9.78187 20.7848C10.6719 20.7848 11.3949 20.0648 11.3949 19.1748C11.3949 18.2848 10.6719 17.5648 9.78187 17.5648C9.35487 17.5648 8.94536 17.7344 8.64342 18.0364C8.34149 18.3383 8.17187 18.7478 8.17187 19.1748C8.17187 19.6018 8.34149 20.0113 8.64342 20.3133C8.94536 20.6152 9.35487 20.7848 9.78187 20.7848ZM22.6849 20.7848C23.1119 20.7848 23.5214 20.6152 23.8233 20.3133C24.1252 20.0113 24.2949 19.6018 24.2949 19.1748C24.2949 18.7478 24.1252 18.3383 23.8233 18.0364C23.5214 17.7344 23.1119 17.5648 22.6849 17.5648C22.2579 17.5648 21.8484 17.7344 21.5464 18.0364C21.2445 18.3383 21.0749 18.7478 21.0749 19.1748C21.0749 19.6018 21.2445 20.0113 21.5464 20.3133C21.8484 20.6152 22.2579 20.7848 22.6849 20.7848Z" fill="black"/>
<path d="M4.5399 10.3178C4.37713 10.3112 4.2147 10.3375 4.06236 10.3953C3.91002 10.453 3.77092 10.5409 3.65341 10.6537C3.5359 10.7666 3.4424 10.902 3.37853 11.0518C3.31466 11.2017 3.28174 11.3629 3.28174 11.5258C3.28174 11.6887 3.31466 11.85 3.37853 11.9998C3.4424 12.1497 3.5359 12.2851 3.65341 12.3979C3.77092 12.5108 3.91002 12.5987 4.06236 12.6564C4.2147 12.7141 4.37713 12.7405 4.5399 12.7338H12.6039C12.7667 12.7405 12.9291 12.7141 13.0814 12.6564C13.2338 12.5987 13.3729 12.5108 13.4904 12.3979C13.6079 12.2851 13.7014 12.1497 13.7653 11.9998C13.8291 11.85 13.8621 11.6887 13.8621 11.5258C13.8621 11.3629 13.8291 11.2017 13.7653 11.0518C13.7014 10.902 13.6079 10.7666 13.4904 10.6537C13.3729 10.5409 13.2338 10.453 13.0814 10.3953C12.9291 10.3375 12.7667 10.3112 12.6039 10.3178H4.5399Z" fill="black"/>
</g>
</g>
<defs>
<clipPath id="clip0_24_135">
<rect width="32" height="32" fill="white" transform="translate(0.330078 0.0812378)"/>
</clipPath>
<clipPath id="clip1_24_135">
<rect width="32" height="32" fill="white" transform="translate(0.330078 -2.31818)"/>
</clipPath>
</defs>
</svg>
