<svg width="16" height="17" viewBox="0 0 16 17" fill="none" xmlns="http://www.w3.org/2000/svg">
<g clip-path="url(#clip0_20_141)">
<g clip-path="url(#clip1_20_141)">
<path d="M6.53706 10.5668C6.41733 10.5668 6.29761 10.5227 6.20309 10.4282C5.68639 9.91149 5.40283 9.22469 5.40283 8.50005C5.40283 6.99405 6.62527 5.77161 8.13127 5.77161C8.85591 5.77161 9.54279 6.05516 10.0595 6.57186C10.1477 6.66008 10.1981 6.77981 10.1981 6.90583C10.1981 7.03186 10.1477 7.15158 10.0595 7.2398L6.87102 10.4282C6.7765 10.5227 6.65678 10.5668 6.53706 10.5668ZM8.13127 6.71679C7.14828 6.71679 6.34802 7.51705 6.34802 8.50005C6.34802 8.81511 6.42994 9.11757 6.58117 9.38219L9.01349 6.94994C8.74879 6.79871 8.44633 6.71679 8.13127 6.71679Z" fill="#171717"/>
<path d="M4.10068 12.6022C3.99356 12.6022 3.88014 12.5643 3.79192 12.4887C3.11769 11.9153 2.51277 11.2096 1.99607 10.3904C1.32813 9.35071 1.32813 7.65564 1.99607 6.60964C3.53357 4.20256 5.77051 2.81628 8.13348 2.81628C9.51979 2.81628 10.8872 3.29518 12.0844 4.19626C12.2923 4.35379 12.3364 4.64995 12.1789 4.85789C12.0214 5.06583 11.7252 5.10994 11.5173 4.95241C10.4839 4.17105 9.31185 3.76147 8.13348 3.76147C6.09818 3.76147 4.15109 4.98391 2.79002 7.12004C2.31743 7.85728 2.31743 9.14274 2.79002 9.88002C3.26262 10.6173 3.80452 11.2537 4.40314 11.7704C4.59848 11.9405 4.62369 12.2367 4.45355 12.4383C4.36533 12.5454 4.23301 12.6022 4.10068 12.6022Z" fill="#171717"/>
<path d="M8.13123 14.1838C7.29315 14.1838 6.47399 14.0137 5.68634 13.6797C5.44689 13.5789 5.33347 13.3016 5.43429 13.0622C5.53511 12.8227 5.81236 12.7093 6.05181 12.8101C6.71974 13.0937 7.41918 13.2386 8.12492 13.2386C10.1602 13.2386 12.1073 12.0162 13.4684 9.88006C13.9409 9.14283 13.9409 7.85737 13.4684 7.12013C13.273 6.81137 13.0588 6.51521 12.8319 6.23795C12.6681 6.03631 12.6996 5.74016 12.9012 5.57002C13.1029 5.40619 13.399 5.43139 13.5692 5.63934C13.8149 5.9418 14.0544 6.26946 14.2686 6.60973C14.9365 7.64943 14.9365 9.34445 14.2686 10.3905C12.7311 12.7975 10.4942 14.1838 8.13123 14.1838Z" fill="#171717"/>
<path d="M8.56596 11.1906C8.34542 11.1906 8.14378 11.0331 8.09967 10.8062C8.04926 10.5479 8.21939 10.3021 8.47774 10.258C9.17087 10.132 9.75059 9.55227 9.87661 8.85911C9.92702 8.60076 10.1728 8.43693 10.4311 8.48104C10.6895 8.53145 10.8596 8.77719 10.8092 9.03555C10.6076 10.1257 9.73799 10.989 8.65418 11.1906C8.62267 11.1843 8.59747 11.1906 8.56596 11.1906Z" fill="#171717"/>
<path d="M1.83088 15.2739C1.71116 15.2739 1.59144 15.2298 1.49692 15.1353C1.31418 14.9526 1.31418 14.6501 1.49692 14.4674L6.20395 9.76034C6.38668 9.57761 6.68914 9.57761 6.87188 9.76034C7.05462 9.94308 7.05462 10.2455 6.87188 10.4283L2.16485 15.1353C2.07033 15.2298 1.95061 15.2739 1.83088 15.2739Z" fill="#171717"/>
<path d="M9.72492 7.37855C9.6052 7.37855 9.48548 7.33444 9.39096 7.23992C9.20822 7.05719 9.20822 6.75473 9.39096 6.57199L14.098 1.86496C14.2807 1.68222 14.5832 1.68222 14.7659 1.86496C14.9487 2.04769 14.9487 2.35015 14.7659 2.53289L10.0589 7.23992C9.96437 7.33444 9.84465 7.37855 9.72492 7.37855Z" fill="#171717"/>
</g>
</g>
<defs>
<clipPath id="clip0_20_141">
<rect width="15.123" height="15.123" fill="white" transform="translate(0.569336 0.938599)"/>
</clipPath>
<clipPath id="clip1_20_141">
<rect width="15.123" height="15.123" fill="white" transform="translate(0.570312 0.938599)"/>
</clipPath>
</defs>
</svg>
