<svg width="18" height="18" viewBox="0 0 18 18" fill="none" xmlns="http://www.w3.org/2000/svg">
<g clip-path="url(#clip0_20_191)">
<mask id="mask0_20_191" style="mask-type:luminance" maskUnits="userSpaceOnUse" x="0" y="0" width="18" height="18">
<path d="M17.462 0.892334H0.658691V17.6957H17.462V0.892334Z" fill="white"/>
</mask>
<g mask="url(#mask0_20_191)">
<path d="M9.06035 17.6957C13.7004 17.6957 17.462 13.9341 17.462 9.294C17.462 4.65388 13.7004 0.892334 9.06035 0.892334C4.42024 0.892334 0.658691 4.65388 0.658691 9.294C0.658691 13.9341 4.42024 17.6957 9.06035 17.6957Z" fill="#3C5A9A"/>
<path d="M11.7922 3.4707H9.93103C8.82654 3.4707 7.59805 3.93523 7.59805 5.53623C7.60344 6.09407 7.59805 6.62833 7.59805 7.2296H6.32031V9.26285H7.63759V15.1163H10.0581V9.22423H11.6558L11.8004 7.22389H10.0165C10.0165 7.22389 10.0204 6.33406 10.0165 6.07565C10.0165 5.44297 10.6747 5.4792 10.7144 5.4792C11.0276 5.4792 11.6367 5.48011 11.7931 5.4792V3.4707H11.7922Z" fill="white"/>
</g>
</g>
<defs>
<clipPath id="clip0_20_191">
<rect width="16.8033" height="16.8033" fill="white" transform="translate(0.658691 0.892334)"/>
</clipPath>
</defs>
</svg>
