<svg width="18" height="18" viewBox="0 0 18 18" fill="none" xmlns="http://www.w3.org/2000/svg">
<g clip-path="url(#clip0_20_166)">
<g clip-path="url(#clip1_20_166)">
<g clip-path="url(#clip2_20_166)">
<mask id="mask0_20_166" style="mask-type:luminance" maskUnits="userSpaceOnUse" x="0" y="0" width="18" height="18">
<path d="M17.4801 0.891968H0.676758V17.6953H17.4801V0.891968Z" fill="white"/>
</mask>
<g mask="url(#mask0_20_166)">
<mask id="mask1_20_166" style="mask-type:luminance" maskUnits="userSpaceOnUse" x="0" y="1" width="18" height="17">
<path d="M17.4801 1.146H0.676758V17.9493H17.4801V1.146Z" fill="white"/>
</mask>
<g mask="url(#mask1_20_166)">
<path d="M17.0932 7.88907C17.1668 7.88907 17.2264 7.94871 17.2264 8.02228V9.42083C17.2264 9.94425 17.1778 10.4561 17.0845 10.9525C16.3632 14.8091 12.9656 17.7235 8.89323 17.6955C4.32368 17.664 0.666661 13.9718 0.676779 9.40218C0.686831 4.84077 4.38781 1.146 8.95157 1.146C11.1875 1.146 13.2162 2.03302 14.7056 3.47387C14.7594 3.52588 14.7608 3.6116 14.7079 3.66448L12.7293 5.64304C12.6784 5.69399 12.5961 5.69531 12.5439 5.64563C11.6091 4.75579 10.3442 4.20949 8.95157 4.20949C6.07572 4.20949 3.75989 6.50886 3.74037 9.38462C3.72075 12.2793 6.06149 14.6321 8.95157 14.6321C11.2965 14.6321 13.2798 13.083 13.9338 10.9525H9.0848C9.01121 10.9525 8.95157 10.893 8.95157 10.8194V8.02225C8.95157 7.94868 9.01121 7.88904 9.0848 7.88904L17.0932 7.88907Z" fill="#2196F3"/>
<path d="M17.0942 7.88904H16.0953C16.1689 7.88904 16.2285 7.94867 16.2285 8.02224V9.4208C16.2285 9.94422 16.1799 10.456 16.0866 10.9525C15.3985 14.6317 12.2745 17.4534 8.45264 17.6806C8.59887 17.6893 8.74606 17.6943 8.8943 17.6953C12.9668 17.7235 16.3642 14.809 17.0856 10.9525C17.1788 10.456 17.2275 9.94422 17.2275 9.4208V8.02221C17.2275 7.94867 17.1678 7.88904 17.0942 7.88904Z" fill="#1E88E5"/>
<path d="M4.21865 7.2384L1.70557 5.4226C3.11546 2.87256 5.83231 1.146 8.95211 1.146C11.188 1.146 13.2168 2.03302 14.7061 3.47387C14.76 3.52588 14.7613 3.6116 14.7084 3.66449L12.7299 5.64304C12.679 5.69388 12.5967 5.69547 12.5446 5.64589C11.6099 4.75589 10.3449 4.20952 8.95211 4.20952C6.85328 4.20952 5.04413 5.45023 4.21865 7.2384Z" fill="#F44336"/>
<path d="M3.49268 6.71429L4.21818 7.23848C4.97164 5.60633 6.54476 4.43085 8.4095 4.23804C8.42353 4.23652 8.43701 4.23468 8.4513 4.23332C8.28719 4.21774 8.12089 4.20959 7.95268 4.20959C6.05668 4.20959 4.4043 5.20914 3.49268 6.71429Z" fill="#E53935"/>
<path d="M13.7073 3.47387C13.761 3.52588 13.7625 3.6116 13.7095 3.66451L12.1036 5.27045C12.2575 5.38746 12.4048 5.51261 12.5445 5.64566C12.5967 5.69534 12.679 5.69401 12.7299 5.64307L14.7085 3.66451C14.7614 3.6116 14.76 3.52591 14.7062 3.47387C13.2168 2.03302 11.1881 1.146 8.95219 1.146C8.7844 1.146 8.61794 1.15159 8.45264 1.16145C10.4903 1.28282 12.3296 2.14111 13.7073 3.47387Z" fill="#E53935"/>
<path d="M15.0211 15.0442C13.51 16.6748 11.3496 17.6954 8.95107 17.6954C5.71141 17.6954 2.90664 15.8337 1.54834 13.1215L4.11402 11.3633C4.88393 13.279 6.75967 14.6319 8.95107 14.6319C10.3263 14.6319 11.5771 14.0991 12.508 13.2287L15.0211 15.0442Z" fill="#4CAF50"/>
<path d="M4.11496 11.3633L3.3584 11.8817C4.23711 13.5187 5.9651 14.6319 7.95302 14.6319C8.12114 14.6319 8.28732 14.6236 8.45135 14.6081C6.47804 14.42 4.8255 13.1313 4.11496 11.3633Z" fill="#43A047"/>
<path d="M8.95185 17.6957C11.3504 17.6957 13.5109 16.6751 15.022 15.0444L14.4064 14.5997C12.9875 16.3656 10.859 17.537 8.45361 17.6806C8.61846 17.6905 8.78454 17.6957 8.95185 17.6957Z" fill="#43A047"/>
<path d="M3.74029 9.42092C3.74029 10.1076 3.87314 10.7633 4.11456 11.3636L1.54885 13.1218C0.990781 12.0083 0.676758 10.7512 0.676758 9.42092C0.676758 7.97079 1.04971 6.60784 1.70504 5.42273L4.21812 7.23854C3.91144 7.90217 3.74029 8.64177 3.74029 9.42092Z" fill="#FFC107"/>
<path d="M3.35791 11.8818L4.11447 11.3634C3.87305 10.763 3.74019 10.1074 3.74019 9.42071C3.74019 8.64154 3.91135 7.90194 4.21804 7.2383L3.49254 6.71411C3.02141 7.49198 2.74799 8.40476 2.74133 9.38458C2.73519 10.2882 2.9591 11.1389 3.35791 11.8818Z" fill="#FFB300"/>
</g>
</g>
</g>
</g>
</g>
<defs>
<clipPath id="clip0_20_166">
<rect width="16.8033" height="16.8033" fill="white" transform="translate(0.672363 0.89209)"/>
</clipPath>
<clipPath id="clip1_20_166">
<rect width="16.8033" height="16.8033" fill="white" transform="translate(0.674805 0.89209)"/>
</clipPath>
<clipPath id="clip2_20_166">
<rect width="16.8033" height="16.8033" fill="white" transform="translate(0.675293 0.89209)"/>
</clipPath>
</defs>
</svg>
