<svg width="33" height="33" viewBox="0 0 33 33" fill="none" xmlns="http://www.w3.org/2000/svg">
<g clip-path="url(#clip0_756_645)">
<g clip-path="url(#clip1_756_645)">
<path d="M21.3033 12.8895C21.7516 12.8895 22.1816 12.7114 22.4986 12.3944C22.8157 12.0774 22.9938 11.6474 22.9938 11.199C22.9938 10.7507 22.8157 10.3207 22.4986 10.0037C22.1816 9.68665 21.7516 9.50854 21.3033 9.50854C20.8551 9.50854 20.4252 9.6866 20.1083 10.0035C19.7913 10.3205 19.6133 10.7503 19.6133 11.1985C19.6133 11.6468 19.7913 12.0766 20.1083 12.3936C20.4252 12.7105 20.8551 12.8895 21.3033 12.8895Z" fill="black"/>
<path fill-rule="evenodd" clip-rule="evenodd" d="M18.3883 5.28149C17.5358 5.28157 16.692 5.45358 15.9075 5.78726C15.1229 6.12094 14.4137 6.60942 13.8223 7.22349L6.63032 14.6915C5.78594 15.5689 5.31943 16.7425 5.33102 17.9602C5.34261 19.1778 5.83139 20.3423 6.69232 21.2035L11.5913 26.1035C12.3743 26.886 13.4331 27.3302 14.5401 27.3405C15.6471 27.3507 16.7139 26.9264 17.5113 26.1585L25.5373 18.4305C26.0696 17.9179 26.493 17.3031 26.7822 16.623C27.0714 15.9429 27.2204 15.2115 27.2203 14.4725V10.7755C27.2201 9.3183 26.641 7.92088 25.6105 6.89059C24.58 5.86029 23.1825 5.28149 21.7253 5.28149H18.3883ZM15.6483 8.98249C16.0032 8.61404 16.4288 8.32096 16.8996 8.12079C17.3704 7.92061 17.8767 7.81746 18.3883 7.81749H21.7253C22.114 7.81736 22.4989 7.8938 22.858 8.04245C23.2171 8.19109 23.5434 8.40903 23.8183 8.68381C24.0932 8.95859 24.3112 9.28484 24.46 9.6439C24.6088 10.003 24.6853 10.3878 24.6853 10.7765V14.4725C24.6853 15.2765 24.3573 16.0465 23.7783 16.6045L15.7523 24.3325C15.4333 24.6397 15.0065 24.8094 14.5636 24.8051C14.1208 24.8008 13.6973 24.6228 13.3843 24.3095L8.48432 19.4105C8.093 19.019 7.87094 18.4895 7.86589 17.936C7.86084 17.3825 8.07321 16.8491 8.45732 16.4505L15.6483 8.98249Z" fill="black"/>
</g>
</g>
<defs>
<clipPath id="clip0_756_645">
<rect width="32" height="32" fill="white" transform="translate(0.330322 0.281494)"/>
</clipPath>
<clipPath id="clip1_756_645">
<rect width="32" height="32" fill="white" transform="translate(0.330322 0.281494)"/>
</clipPath>
</defs>
</svg>
