<svg width="1167" height="691" viewBox="0 0 1167 691" fill="none" xmlns="http://www.w3.org/2000/svg">
<g opacity="0.21">
<path d="M102.721 746.988C140.377 775.468 164.953 816.313 186.53 852.381C211.023 893.226 232.267 928.545 265.424 934.259C268.507 934.821 271.672 935.009 274.838 935.009C300.414 935.009 330.822 918.427 369.395 883.483C398.303 857.252 422.379 833.457 443.623 812.379C488.444 767.88 520.851 735.747 556.674 725.348C593.247 714.668 633.403 725.91 695.218 764.039C745.704 795.235 805.937 816.688 860.338 822.871C885.664 825.775 908.657 825.213 926.902 821.091C946.147 816.782 959.643 809.006 966.891 797.858C976.805 782.588 979.221 754.202 934.15 705.581C880.249 647.404 818.933 640.378 754.035 632.977C711.047 628.106 666.56 622.953 621.656 602.624C570.837 579.672 526.766 539.763 486.861 480.837C457.37 437.275 422.963 416.665 387.223 421.255C362.896 424.347 338.987 438.774 316.16 463.974C293.25 489.456 272.589 524.587 254.927 568.43C241.764 600.938 227.268 617.613 210.357 619.3C173.784 622.953 131.462 553.816 90.6408 486.926C70.23 453.482 49.1527 419.007 29.075 394.275C18.6614 381.253 9.16407 371.791 0.333252 365.514V368.981C28.4086 389.778 58.8999 439.617 88.6414 488.332C109.136 521.87 130.379 556.626 150.79 581.92C172.617 608.901 191.279 622.11 207.691 622.11C208.69 622.11 209.69 622.016 210.69 621.923C228.518 620.143 243.764 602.999 257.26 569.461C274.838 525.898 295.249 491.049 317.993 465.848C340.403 441.022 363.813 426.876 387.556 423.878C422.296 419.475 456.037 439.711 484.945 482.43C525.1 541.824 569.587 581.92 620.74 605.06C665.977 625.576 710.631 630.635 753.785 635.6C818.266 643.001 879.166 649.934 932.484 707.454C976.305 754.764 974.305 781.745 964.975 796.078C951.312 816.969 912.323 825.869 860.671 819.967C806.603 813.784 746.704 792.424 696.468 761.415C634.069 722.912 593.414 711.67 556.091 722.537C519.685 733.123 487.111 765.444 442.041 810.224C420.797 831.302 396.803 855.098 367.895 881.235C325.074 920.02 292.667 935.945 265.841 931.355C233.767 925.922 212.856 891.072 188.613 850.695C166.869 814.44 142.209 773.407 104.137 744.553C72.5626 720.664 42.4879 708.672 14.4126 708.672C9.66392 708.672 4.99859 709.047 0.333252 709.703V712.513C31.9076 707.923 66.2311 719.352 102.721 746.988Z" fill="#FF6A1D" fill-opacity="0.2"/>
<path fill-rule="evenodd" clip-rule="evenodd" d="M284.086 883.202C281.67 883.202 279.337 882.921 277.088 882.266C256.677 876.645 240.431 860.344 230.101 835.331C219.687 809.849 216.188 776.967 220.104 740.15C223.686 706.986 234.1 674.104 250.429 645.062C308.495 541.543 356.732 484.772 393.804 476.34C405.718 473.624 416.631 475.966 426.045 483.367C461.351 510.945 484.381 537.792 504.691 561.469L505.439 562.341L505.621 562.552C537.026 599.176 561.861 628.138 616.241 644.875C650.648 655.461 666.893 665.204 665.81 674.759C664.977 682.16 653.314 688.062 631.07 692.372C609.493 696.494 578.335 699.023 541.012 699.585C512.854 700.054 483.612 712.326 451.538 737.339C423.546 759.261 397.053 787.834 373.643 813.128C339.07 850.507 308.829 883.202 284.086 883.202ZM252.595 646.561C236.516 675.228 226.185 707.736 222.686 740.524C218.854 776.779 222.27 809.193 232.517 834.207C242.431 858.47 258.093 874.209 277.754 879.642C279.837 880.205 282.003 880.486 284.169 880.486C307.828 880.486 337.735 848.168 371.89 811.258L371.894 811.254C395.304 785.867 421.88 757.2 450.122 735.184C482.612 709.89 512.354 697.337 541.012 696.868C578.252 696.306 609.243 693.777 630.653 689.655C658.229 684.315 662.977 677.851 663.394 674.478C664.56 663.799 630.403 652.088 615.658 647.592C560.507 630.541 535.431 601.312 503.773 564.308L503.43 563.909C483.104 540.211 460.086 513.377 424.712 485.709C418.214 480.65 411.049 478.12 403.218 478.12C400.386 478.12 397.387 478.495 394.387 479.151C358.064 487.395 310.328 543.698 252.595 646.561Z" fill="#FF6A1D" fill-opacity="0.2"/>
<path fill-rule="evenodd" clip-rule="evenodd" d="M871.418 779.777C832.346 773.407 787.775 762.821 761.45 755.607C717.462 743.616 698.634 733.03 696.552 718.977C694.635 706.33 706.799 691.06 734.707 670.918C749.953 659.958 769.781 657.616 793.857 664.173C812.935 669.326 834.679 680.006 858.505 695.932C898.161 722.444 930.568 754.858 932.151 756.45C943.814 765.725 948.48 772.657 946.397 777.81C944.397 782.588 936.4 785.023 922.07 785.023C909.824 785.023 892.995 783.244 871.418 779.777ZM768.781 663.33C756.118 663.33 745.204 666.703 736.04 673.261C709.464 692.465 697.385 707.267 698.967 718.322C701.3 734.154 732.125 744.646 761.95 752.797C834.262 772.564 937.816 791.862 943.981 776.592C944.814 774.531 944.231 769.472 930.568 758.605L930.485 758.511C930.466 758.495 930.339 758.371 930.111 758.145C926.363 754.449 895.098 723.615 857.172 698.274C833.596 682.535 812.102 671.949 793.274 666.89C784.526 664.548 776.362 663.33 768.781 663.33Z" fill="#FF6A1D" fill-opacity="0.2"/>
<path d="M1035.37 230.424C1015.13 238.762 1003.13 260.496 986.385 290.662C978.304 305.277 969.057 321.858 957.477 339.471C919.821 396.336 881.915 375.445 819.1 340.876C786.692 322.983 746.287 300.78 696.385 284.667C623.822 261.246 575.419 262.464 548.427 288.414C523.684 312.209 515.853 356.146 523.684 426.689C530.515 487.863 571.337 534.985 644.983 566.837C714.38 596.816 796.523 605.341 839.261 607.87C913.573 612.086 978.804 625.014 1033.29 646.093C1076.78 662.955 1113.52 685.064 1142.42 711.858C1151.92 720.664 1160 729.376 1166.75 737.808V733.686C1160.34 726.004 1152.92 717.947 1144.26 709.89C1115.1 682.816 1078.11 660.52 1034.29 643.563C979.554 622.391 913.989 609.463 839.427 605.154C796.773 602.718 714.963 594.193 645.899 564.308C573.17 532.924 532.848 486.552 526.183 426.501C518.436 356.989 526.017 313.895 550.093 290.756C576.419 265.462 624.072 264.337 695.718 287.571C745.454 303.684 785.693 325.793 818.017 343.593C849.924 361.205 875.167 375.07 897.661 377.506C922.07 380.129 941.148 368.981 959.476 341.344C971.14 323.732 980.387 307.057 988.551 292.348C1004.96 262.651 1016.88 241.198 1036.29 233.235C1056.78 224.804 1084.52 231.923 1129.18 257.03C1142.76 264.712 1155.25 273.144 1166.75 282.043V278.483C1155.59 269.865 1143.42 261.808 1130.26 254.407C1084.86 228.926 1056.53 221.712 1035.37 230.424Z" fill="#FF6A1D" fill-opacity="0.2"/>
<path d="M1084.44 318.111C1063.95 318.767 1046.62 329.728 1032.96 350.713C1020.54 369.73 1011.79 387.061 1003.96 402.238C978.804 451.421 967.307 473.905 890.246 439.898C867.752 429.968 841.26 415.541 813.185 400.27C735.873 358.113 648.232 310.335 601.828 333.569C587.832 340.501 578.252 353.804 573.336 372.915C566.672 398.772 569.254 422.192 581.168 442.521C598.496 472.031 634.986 495.452 692.636 514.188C737.456 528.802 795.19 540.513 874.167 551.193C951.728 561.685 1032.04 589.602 1100.19 629.698C1125.6 644.687 1148.17 660.801 1166.5 676.82V673.073C1148.42 657.522 1126.43 641.971 1101.27 627.169C1032.87 586.885 952.228 558.874 874.334 548.382C795.44 537.702 737.873 525.992 693.219 511.378C636.152 492.829 600.162 469.689 583.167 440.835C571.67 421.255 569.171 398.678 575.586 373.571C580.418 355.022 589.249 342.75 602.661 336.098C648.065 313.427 735.124 360.924 811.935 402.8C840.01 418.164 866.586 432.591 889.163 442.521C927.236 459.29 950.645 463.038 967.474 454.887C983.719 447.018 993.05 428.844 1005.88 403.643C1013.63 388.466 1022.38 371.323 1034.7 352.399C1047.87 332.163 1064.53 321.577 1084.27 320.922C1112.1 320.078 1142.34 339.19 1166.42 359.519V355.959C1128.59 324.107 1101.27 317.549 1084.44 318.111Z" fill="#FF6A1D" fill-opacity="0.2"/>
<path d="M1080.69 390.996C1066.03 393.806 1055.2 406.734 1048.45 429.406C1028.29 496.95 981.137 492.36 949.896 489.362C932.9 487.676 920.571 486.552 919.071 497.513C917.155 511.378 923.903 522.057 940.565 530.957C955.394 538.92 976.721 545.103 1001.38 552.129C1053.03 566.931 1119.18 585.949 1166.58 634.757V630.916C1118.93 582.951 1053.28 564.121 1001.96 549.413C952.978 535.36 917.655 525.243 921.487 497.887C922.57 489.924 932.401 490.486 949.646 492.173C965.641 493.672 985.469 495.639 1004.21 488.519C1026.37 480.088 1041.62 461.07 1050.78 430.342C1057.2 408.795 1067.45 396.429 1081.11 393.806C1106.85 388.747 1140.76 417.883 1166.67 445.8V441.865C1165.33 440.366 1163.92 438.961 1162.5 437.462C1128.84 402.612 1101.35 386.968 1080.69 390.996Z" fill="#FF6A1D" fill-opacity="0.2"/>
<path d="M1115.43 462.569C1102.6 457.323 1091.77 458.353 1083.44 465.754C1076.61 471.75 1073.69 480.275 1074.69 491.048C1078.28 528.334 1128.84 583.232 1166.67 608.807V605.435C1149.92 593.912 1131.26 577.049 1115.27 558.781C1092.44 532.643 1078.86 508.473 1077.11 490.58C1076.19 480.931 1078.78 473.249 1084.94 467.815C1107.35 448.048 1144.26 482.711 1166.67 508.38V504.351C1161.5 498.449 1155.59 492.266 1149.34 486.364C1136.93 474.748 1125.51 466.691 1115.43 462.569Z" fill="#FF6A1D" fill-opacity="0.2"/>
<path fill-rule="evenodd" clip-rule="evenodd" d="M879.108 491.513C879.395 491.743 879.555 491.871 879.582 491.892C889.496 500.229 892.995 507.068 889.996 512.221C886.664 517.748 875.917 519.903 861.754 519.903C842.343 519.903 816.351 515.874 793.524 510.722C737.956 498.262 684.971 477.09 651.814 454.138C614.491 428.281 601.828 400.27 615.241 373.103C618.824 365.795 624.822 361.111 632.986 359.05C659.312 352.492 708.881 372.822 780.194 419.663C830.309 452.448 874.09 487.496 879.108 491.513ZM857.006 516.905C880.082 517.561 886.247 513.158 887.83 510.534C890.579 506.038 884.081 499.105 878.083 494.14C875.917 492.36 712.63 360.643 643.567 360.643C639.901 360.643 636.569 361.018 633.486 361.767C626.072 363.641 620.656 367.856 617.407 374.414C610.743 387.904 610.826 401.582 617.741 415.166C623.989 427.532 635.902 439.804 653.064 451.702C685.971 474.467 738.623 495.545 793.94 507.911C817.683 513.251 840.094 516.436 857.006 516.905Z" fill="#FF6A1D" fill-opacity="0.2"/>
<path fill-rule="evenodd" clip-rule="evenodd" d="M792.382 467.797C792.985 468.217 793.32 468.45 793.357 468.471C794.607 469.502 798.522 472.78 796.606 475.872C795.523 477.746 792.191 478.401 787.692 478.401C775.362 478.401 754.452 472.968 749.12 471.563C721.378 464.068 695.635 453.295 680.306 442.708C664.894 432.029 659.562 421.63 664.394 411.793C665.56 409.451 667.56 407.859 670.226 407.109C681.056 404.018 705.132 413.386 741.705 435.027C765.76 449.259 787.58 464.453 792.382 467.797ZM749.703 468.752C778.028 476.34 793.19 476.528 794.607 474.186C794.773 474.092 794.523 472.968 791.858 470.719C789.525 469.033 704.382 409.264 674.974 409.264C673.391 409.264 672.058 409.451 670.809 409.826C668.726 410.388 667.393 411.512 666.56 413.105C662.478 421.349 667.476 430.436 681.556 440.179C696.635 450.671 722.127 461.351 749.703 468.752Z" fill="#FF6A1D" fill-opacity="0.2"/>
<path fill-rule="evenodd" clip-rule="evenodd" d="M301.664 813.034C293.333 816.969 286.502 818.562 280.92 818.562C269.59 818.562 263.425 812.004 259.926 805.071C237.682 760.76 287.918 618.082 356.232 562.434C376.643 545.853 394.971 539.108 410.633 542.48C423.546 545.291 434.626 554.752 443.624 570.678C452.454 586.23 456.703 604.217 456.12 622.766C455.537 641.221 450.122 658.927 440.541 673.916L437.959 677.945L437.808 678.18C406.031 727.852 373.197 779.175 301.664 813.034ZM357.731 564.87C326.824 590.071 296.416 636.631 276.421 689.374C257.677 738.744 252.095 783.712 262.092 803.76C268.84 817.156 281.753 819.405 300.664 810.411C371.644 776.779 404.301 725.723 435.876 676.258L438.458 672.23C447.789 657.709 453.038 640.565 453.621 622.672C454.204 604.685 450.038 587.26 441.541 572.271C432.96 557.095 422.38 548.007 410.216 545.384C407.717 544.822 405.135 544.541 402.552 544.541C389.306 544.541 374.31 551.38 357.731 564.87Z" fill="#FF6A1D" fill-opacity="0.2"/>
<path fill-rule="evenodd" clip-rule="evenodd" d="M325.157 748.768C319.992 751.204 315.743 752.235 312.328 752.235C305.746 752.235 302.164 748.581 300.248 744.74C294.499 733.311 297.998 709.141 309.329 681.692C321.158 653.212 338.903 627.356 356.898 612.742C368.812 603.092 379.475 599.158 388.723 601.125C396.304 602.718 402.885 608.245 408.134 617.613C418.547 636.162 417.881 659.77 406.301 677.851C387.889 706.611 367.812 728.533 325.157 748.768ZM358.398 615.084C340.82 629.417 323.325 654.805 311.661 682.91C300.748 709.047 297.165 732.842 302.497 743.429C305.996 750.455 313.327 751.391 324.241 746.239C366.396 726.285 386.14 704.644 404.301 676.258C415.298 659.114 415.965 636.724 406.051 619.206C401.136 610.587 395.221 605.435 388.306 603.936C386.89 603.655 385.473 603.467 383.974 603.467C376.393 603.467 367.895 607.402 358.398 615.084Z" fill="#FF6A1D" fill-opacity="0.2"/>
<path d="M91.8905 703.239C123.382 717.76 153.456 731.718 173.784 731.718C179.282 731.718 184.031 730.688 187.946 728.439C193.445 725.254 196.944 719.54 198.443 711.577C202.026 692.84 184.281 674.759 157.372 647.404C130.713 620.33 94.2232 583.326 61.9824 527.866C40.072 490.299 19.4945 466.129 0.33331 455.356V458.447C18.7447 469.221 38.6557 492.828 59.8163 529.365C92.3071 585.199 128.88 622.297 155.622 649.465C181.865 676.165 199.277 693.777 195.944 710.921C194.528 718.134 191.529 723.006 186.697 725.816C169.452 736.028 132.212 718.79 92.8069 700.522C66.8143 688.531 39.9053 676.071 16.5787 670.45C10.747 669.045 5.24857 668.108 0.25 667.64V670.45C5.08195 670.918 10.4138 671.762 16.0788 673.167C39.2389 678.881 66.0645 691.248 91.8905 703.239Z" fill="#FF6A1D" fill-opacity="0.2"/>
<path d="M80.0604 652.65C88.7246 652.65 94.2231 650.215 96.4724 645.437C101.971 633.446 85.3923 610.587 47.0699 577.236C29.7415 562.247 11.7466 548.382 0.416504 539.857V543.136C38.3224 571.522 102.971 625.201 94.3064 644.125C92.4736 648.154 87.475 649.934 80.477 649.934C62.0656 649.934 29.4082 638.13 0.416504 625.576V628.574C6.66472 631.291 13.2462 634.008 19.9109 636.631C46.9032 647.31 67.0641 652.65 80.0604 652.65Z" fill="#FF6A1D" fill-opacity="0.2"/>
<path d="M81.7267 370.948C100.471 409.732 120.549 449.641 140.127 478.776C161.704 510.722 180.449 526.273 197.527 526.273C197.694 526.273 197.86 526.273 198.027 526.273C215.022 525.992 230.018 510.628 243.847 479.526C272.922 414.229 307.329 374.32 343.402 364.296C368.062 357.458 393.388 364.203 418.631 384.532C438.042 400.177 451.871 405.329 460.702 400.364C473.781 393.057 474.531 365.795 475.364 334.318C476.281 299.749 477.28 260.496 495.692 242.51C504.273 234.172 515.769 231.08 530.849 232.954C570.337 238.013 607.91 231.268 639.484 213.655C669.476 196.886 692.719 171.311 706.632 139.646C719.878 109.574 723.71 75.6614 717.878 41.7484C715.463 27.6024 711.38 13.7374 705.799 0.153503H702.966C722.461 46.4325 723.544 95.1473 704.466 138.429C690.803 169.531 667.976 194.638 638.484 211.126C607.327 228.551 570.171 235.109 531.182 230.143C515.603 228.176 503.106 231.549 494.109 240.355C474.865 259.091 473.865 299 472.865 334.131C472.115 363.453 471.365 391.183 459.619 397.741C451.621 402.238 438.708 397.085 420.047 382.096C394.138 361.299 368.145 354.366 342.736 361.392C305.913 371.697 270.923 412.074 241.598 478.12C228.185 508.192 213.939 522.994 198.027 523.275C197.86 523.275 197.694 523.275 197.527 523.275C161.287 523.275 121.549 447.299 83.8927 369.355C60.816 321.858 32.824 289.07 0.333252 271.645V274.736C31.8243 292.067 59.1498 324.294 81.7267 370.948Z" fill="#FF6A1D" fill-opacity="0.2"/>
<path d="M113.051 250.66C127.464 250.66 140.127 248.318 150.54 243.54C174.284 232.673 186.114 210.47 185.697 177.307C185.28 144.799 193.028 120.629 209.357 103.485C249.595 60.9533 336.237 68.2605 428.044 76.1298C441.541 77.254 455.537 78.4719 469.283 79.5024C482.696 80.5329 495.025 81.0013 506.355 81.0013C558.091 81.0013 587.416 70.6026 593.831 49.8988C598.329 35.2844 590.831 17.5784 578.835 0.340881H575.586C587.916 17.4847 595.747 35.0033 591.498 49.0557C584.167 72.851 543.178 82.2192 469.533 76.7856C455.787 75.7551 441.791 74.5372 428.294 73.413C335.987 65.5437 248.762 58.1428 207.691 101.518C190.862 119.317 182.864 144.143 183.281 177.494C183.698 209.346 172.367 230.799 149.707 241.104C120.549 254.407 73.1458 248.318 19.4944 224.429C13.0796 221.618 6.74803 218.527 0.416504 215.342V218.433C6.41479 221.525 12.4964 224.429 18.578 227.052C53.7346 242.603 86.392 250.66 113.051 250.66Z" fill="#FF6A1D" fill-opacity="0.2"/>
<path d="M65.3148 161.474C95.3062 159.413 120.716 141.707 140.96 108.825L144.292 103.391C168.869 63.4827 181.198 43.4347 199.443 35.097C217.688 26.7593 242.431 29.7571 291.75 35.8465C297.748 36.5959 304.163 37.3454 310.911 38.1885C369.395 45.2147 411.716 47.6504 440.291 45.402C467.867 43.2474 483.529 36.9706 489.527 25.6351C493.193 18.7026 493.026 10.2712 490.027 0.340881H487.444C490.443 9.89647 490.777 17.8595 487.361 24.2299C481.863 34.4412 466.45 40.5306 440.124 42.5916C411.633 44.84 369.478 42.4979 311.161 35.378C304.413 34.5349 297.998 33.7854 292 33.036C242.264 26.853 217.355 23.7614 198.443 32.4739C179.532 41.1863 167.036 61.4217 142.209 101.799L138.877 107.232C119.049 139.365 94.3065 156.697 65.1481 158.664C50.1524 159.694 28.4086 156.79 0.25 141.988V145.08C24.9929 157.914 44.8206 161.662 59.5664 161.662C61.6491 161.662 63.5653 161.568 65.3148 161.474Z" fill="#FF6A1D" fill-opacity="0.2"/>
<path d="M99.4716 95.3347C111.385 89.058 119.549 78.3782 123.631 63.5764C129.713 42.0295 131.046 20.2952 130.046 0.247192H127.547C128.547 20.0142 127.214 41.4674 121.215 62.7333C117.3 76.7856 109.552 86.9033 98.3053 92.8053C71.5629 106.858 29.9915 95.3347 0.333252 83.8118V86.8096C20.2442 94.4916 45.4037 102.08 68.0639 102.08C79.4773 102.08 90.3076 100.112 99.4716 95.3347Z" fill="#FF6A1D" fill-opacity="0.2"/>
<path d="M613.075 69.3847C596.58 106.014 523.517 101.049 522.684 100.956C481.779 100.956 443.79 97.6767 410.3 94.6789C360.481 90.2758 317.41 86.5285 285.585 95.8031C268.757 100.675 255.677 109.012 245.68 121.191C234.85 134.307 227.518 152.012 223.186 175.152C208.774 252.534 171.035 261.808 140.627 269.209C122.299 273.706 106.47 277.547 101.221 295.908C96.4726 312.678 101.971 346.028 115.384 380.878C129.713 418.257 149.208 447.205 167.536 458.26C173.451 461.82 179.366 463.6 184.947 463.6C195.611 463.6 205.691 457.229 214.522 444.769C227.935 425.846 238.849 405.236 249.429 385.281C269.173 347.996 286.168 315.863 312.578 308.649C328.823 304.246 347.734 309.68 370.228 325.512C400.053 346.403 420.713 352.961 433.46 345.56C449.289 336.379 450.871 307.993 452.538 277.828C454.787 237.357 457.12 195.481 494.109 197.355C502.607 197.729 510.771 198.01 518.685 198.01C598.663 198.01 650.564 176.745 672.975 134.588C690.636 101.518 686.138 61.6091 679.306 34.0665C676.057 20.8573 671.975 9.24069 668.393 0.247192H665.643C669.309 9.24069 673.558 21.3257 676.89 34.9096C688.97 83.9054 680.223 115.383 670.809 133.182C646.649 178.525 587.166 199.228 494.192 194.638C476.447 193.795 464.617 202.226 458.036 220.494C452.288 236.326 451.121 257.405 450.038 277.828C448.455 307.15 446.873 334.786 432.293 343.218C420.38 350.15 400.552 343.593 371.477 323.264C348.317 307.057 328.823 301.436 311.911 306.12C284.502 313.614 267.174 346.216 247.18 384.063C236.683 403.924 225.769 424.44 212.439 443.177C199.443 461.445 184.697 465.661 168.535 455.918C150.707 445.144 131.546 416.759 117.467 379.941C104.554 346.216 98.8885 312.865 103.387 296.939C108.219 280.076 122.632 276.516 140.96 272.113C156.289 268.366 173.617 264.15 189.113 250.847C207.024 235.483 218.938 210.939 225.436 175.808C233.517 132.245 252.178 108.45 286.002 98.6136C300.164 94.4915 316.743 92.9926 335.154 92.9926C357.481 92.9926 382.724 95.241 409.883 97.5831C443.457 100.487 481.446 103.86 522.351 103.86C522.351 103.86 522.351 103.86 522.434 103.86C522.601 103.86 541.429 105.265 562.006 101.892C589.998 97.3957 607.827 86.9033 615.158 70.7899C623.072 53.2714 617.99 29.6634 599.996 0.340875H596.996C615.324 29.2887 620.656 52.5219 613.075 69.3847Z" fill="#FF6A1D" fill-opacity="0.2"/>
<path d="M619.49 103.391C605.827 122.596 564.506 130.559 500.107 126.437C451.205 123.346 405.884 114.258 405.468 114.165C405.218 114.071 377.559 108.544 346.401 115.383C327.99 119.317 311.994 126.718 298.748 137.398C282.169 150.701 269.923 169.063 262.425 191.921C247.929 236.233 231.684 266.492 212.689 284.479C196.194 300.124 180.115 304.246 165.12 307.15C143.209 311.366 135.795 327.105 133.462 339.564C128.797 363.922 140.043 396.804 157.538 410.013C162.287 413.573 167.119 415.353 171.784 415.353C176.116 415.353 180.365 413.854 184.364 410.763C200.776 398.209 217.605 374.039 235.433 348.558C269.34 299.937 304.413 249.723 339.653 274.924C344.818 278.577 349.817 282.231 354.565 285.791C380.391 304.808 400.886 319.891 413.799 312.771C421.463 308.556 425.795 297.407 427.378 277.547C430.627 236.514 436.625 205.599 455.37 188.174C468.7 175.714 487.694 171.124 513.52 173.934C585.833 181.897 633.486 167.47 655.23 131.215C672.641 102.173 669.642 64.4195 664.06 37.8138C660.895 22.7309 656.563 9.42805 653.147 0.153503H650.481C653.897 9.33436 658.395 22.9183 661.644 38.4695C667.06 64.5132 669.975 101.424 653.147 129.622C631.986 164.941 585.083 178.899 513.77 171.124C487.278 168.219 467.7 173.091 453.787 186.019C434.459 204.1 428.211 235.577 424.879 277.359C423.379 295.908 419.464 306.682 412.716 310.335C401.052 316.706 381.141 302.091 355.982 283.542C351.15 279.982 346.151 276.329 340.986 272.675C324.241 260.684 306.163 263.682 285.752 281.856C267.924 297.595 250.429 322.702 233.517 346.965C215.855 372.353 199.11 396.242 183.031 408.608C173.617 415.822 164.786 412.168 158.955 407.765C142.209 395.118 131.462 363.547 135.878 340.22C138.127 328.604 145.042 313.895 165.536 309.961C180.865 306.963 197.277 302.747 214.272 286.634C233.6 268.272 250.095 237.638 264.758 192.858C272.089 170.468 284.002 152.575 300.081 139.646C312.994 129.248 328.74 122.034 346.734 118.099C358.398 115.57 369.561 114.727 378.975 114.727C394.304 114.727 404.801 116.882 404.968 116.882C405.384 116.975 450.871 126.062 499.941 129.154C566.088 133.37 606.993 125.313 621.406 105.078C635.652 85.217 638.984 58.3302 630.987 27.415C628.237 16.8289 624.655 7.46072 621.489 0.247186H618.657C621.906 7.36704 625.738 17.11 628.571 28.1645C633.986 49.0556 636.735 79.1276 619.49 103.391Z" fill="#FF6A1D" fill-opacity="0.2"/>
<path fill-rule="evenodd" clip-rule="evenodd" d="M352.816 140.489C361.73 135.618 371.644 134.588 380.808 137.679C389.805 140.677 396.553 146.954 400.802 156.322C413.799 184.52 402.302 234.078 394.304 261.059C392.221 268.178 389.639 271.926 386.223 272.769L386.223 272.769C385.723 272.863 385.223 272.956 384.724 272.956C379.174 272.956 372.8 265.64 364.866 256.532L364.729 256.374C357.148 247.662 348.567 237.825 338.237 230.893C320.992 219.276 312.494 206.254 312.994 192.015C313.91 167.189 342.819 146.017 352.816 140.489ZM385.723 270.052C388.139 269.396 390.222 266.211 391.971 260.215C410.383 198.198 404.051 169.344 398.553 157.727C394.554 149.108 388.306 143.3 380.058 140.489C376.809 139.365 373.477 138.803 370.061 138.803C364.563 138.803 359.064 140.208 353.899 143.019C344.235 148.359 316.326 168.688 315.493 192.108C314.993 205.224 323.158 217.496 339.57 228.457C350.051 235.418 359.061 245.78 366.356 254.171L366.562 254.407L366.657 254.516C374.447 263.463 381.16 271.172 385.723 270.052Z" fill="#FF6A1D" fill-opacity="0.2"/>
<path fill-rule="evenodd" clip-rule="evenodd" d="M357.398 183.958C360.314 182.365 363.563 181.991 366.562 183.021C369.478 184.052 371.727 186.113 373.227 189.298C377.392 198.291 373.81 213.749 371.311 222.18C370.894 223.773 370.061 225.928 368.228 226.396C367.978 226.49 367.812 226.49 367.562 226.49C365.499 226.49 363.518 224.192 360.89 221.144L360.814 221.056C358.564 218.433 355.982 215.435 352.899 213.374C347.318 209.627 344.568 205.318 344.735 200.54C345.047 191.586 355.819 184.935 357.243 184.056C357.339 183.997 357.393 183.964 357.398 183.958ZM367.645 223.586C367.895 223.586 368.395 222.836 368.895 221.244C370.811 214.78 374.81 198.854 371.061 190.516C369.894 188.08 368.228 186.488 365.896 185.738C364.979 185.457 363.979 185.27 363.063 185.27C361.48 185.27 359.981 185.644 358.481 186.488C356.232 187.799 347.484 193.888 347.234 200.727C347.068 204.287 349.4 207.753 354.149 210.939C357.481 213.187 360.314 216.466 362.563 219.089C362.676 219.216 362.791 219.346 362.908 219.477C364.678 221.474 366.785 223.849 367.645 223.586Z" fill="#FF6A1D" fill-opacity="0.2"/>
<path d="M1018.96 167.002C987.135 179.461 965.058 215.81 953.478 275.017C948.146 302.372 934.816 319.61 913.906 326.261C874.75 338.815 812.101 309.961 768.364 259.091C733.291 218.433 719.211 173.747 729.708 136.555C739.456 102.08 742.205 64.6069 737.956 25.354C737.04 17.11 735.79 8.6786 734.29 0.247192H731.708C733.291 8.86596 734.54 17.2974 735.457 25.7288C739.705 64.6069 736.956 101.705 727.376 135.805C716.545 174.028 730.875 219.651 766.614 261.152C787.442 285.322 813.601 305.651 840.343 318.392C859.338 327.479 877.666 332.07 893.828 332.07C901.326 332.07 908.324 331.039 914.656 329.072C936.149 322.233 950.479 303.778 955.977 275.673C967.39 217.496 988.801 181.897 1019.79 169.718C1063.95 152.387 1120.51 184.989 1166.67 222.743V219.276C1120.18 181.522 1063.61 149.577 1018.96 167.002Z" fill="#FF6A1D" fill-opacity="0.2"/>
<path d="M1033.87 92.7116C1006.96 98.8009 986.469 118.943 973.056 152.387C954.478 198.666 930.901 231.08 902.909 248.88C872.918 267.897 846.259 264.712 829.18 258.717C808.519 251.409 790.691 236.045 778.945 215.435C766.781 194.169 762.283 169.063 766.365 144.799C774.779 94.3979 777.945 45.7768 775.945 0.247192H773.446C775.446 45.5894 772.28 94.0231 763.949 144.237C759.783 169.25 764.365 195.013 776.862 216.841C788.942 238.013 807.27 253.751 828.514 261.246C837.428 264.431 846.592 265.93 855.756 265.93C872.168 265.93 888.747 260.965 904.159 251.222C932.651 233.141 956.561 200.259 975.388 153.418C988.468 120.816 1008.3 101.33 1034.37 95.3347C1055.53 90.5569 1080.94 94.8663 1107.85 107.982C1128.93 118.193 1150.26 133.557 1166.67 150.326V146.579C1132.76 113.041 1078.11 82.6876 1033.87 92.7116Z" fill="#FF6A1D" fill-opacity="0.2"/>
<path d="M1141.92 88.9643C1113.52 85.9665 1079.19 73.6004 1047.7 54.8639C1011.21 33.1297 980.72 65.5437 945.48 103.017C918.655 131.59 888.247 163.91 850.591 175.62C837.345 179.742 827.097 177.588 820.016 169.437C795.94 141.426 812.102 49.7114 823.099 0.247192H820.516C817.184 15.33 813.351 34.1602 810.352 53.8334C801.105 115.008 803.771 154.542 818.267 171.405C823.515 177.494 830.263 180.492 838.428 180.492C842.426 180.492 846.675 179.742 851.341 178.337C889.496 166.533 920.238 133.932 947.23 105.078C981.803 68.3542 1011.63 36.5959 1046.53 57.3934C1078.69 76.5982 1112.52 88.7769 1141.67 91.7748C1150.76 92.7116 1159.09 92.7116 1166.67 91.7748V88.9643C1159.25 89.9011 1150.92 89.9011 1141.92 88.9643Z" fill="#FF6A1D" fill-opacity="0.2"/>
<path d="M856.922 123.627C858.255 123.814 859.505 123.908 860.838 123.908C882.998 123.908 907.741 96.5526 920.987 79.5024C938.566 57.0186 955.644 27.7898 967.557 0.153503H964.808C953.062 27.134 936.316 55.6134 919.155 77.6287C895.495 107.982 873.501 123.346 857.256 120.816C850.507 119.786 846.092 116.32 843.759 110.418C835.012 87.9338 858.672 35.6591 877.25 0.247186H874.334C870.668 7.36704 866.753 15.049 863.004 23.012C842.593 66.1995 835.345 95.9905 841.51 111.542C844.176 118.381 849.341 122.409 856.922 123.627Z" fill="#FF6A1D" fill-opacity="0.2"/>
<path d="M890.246 61.7964C890.746 61.8901 891.329 61.8901 891.912 61.8901C896.911 61.8901 904.825 58.5175 915.822 44.3715C923.986 33.9728 931.818 19.8268 936.4 7.46071C937.149 5.3997 937.982 2.87028 938.732 0.153497H936.15C935.566 2.12082 934.9 4.18183 934.15 6.33653C924.736 31.8181 903.242 60.9533 890.663 58.8923C888.33 58.5175 886.83 57.3934 885.997 55.3324C881.749 44.4652 898.994 12.3322 906.408 0.0598145H903.409C898.077 9.14699 878.666 43.341 883.748 56.4565C884.831 59.548 887.08 61.328 890.246 61.7964Z" fill="#FF6A1D" fill-opacity="0.2"/>
<path d="M1125.01 59.4544C1108.43 57.1123 1089.86 49.243 1069.7 36.0338C1052.12 24.5109 1036.37 10.8333 1025.21 0.247192H1021.38C1032.79 11.208 1049.53 26.1035 1068.45 38.4696C1088.94 51.8661 1107.85 59.9228 1124.76 62.2649C1128.26 62.7333 1131.68 63.0143 1135.09 63.0143C1146.84 63.0143 1157.42 60.0165 1166.83 54.0208V50.7419C1154.75 58.7049 1140.84 61.7028 1125.01 59.4544Z" fill="#FF6A1D" fill-opacity="0.2"/>
<path fill-rule="evenodd" clip-rule="evenodd" d="M649.231 245.882C648.565 238.387 657.646 229.581 676.14 219.557C688.304 213 702.8 215.061 712.88 224.897C720.878 232.673 729.542 243.727 725.21 252.908C721.877 260.028 711.297 263.775 697.218 263.775C687.804 263.775 676.807 262.089 665.31 258.623C654.897 255.531 649.648 251.316 649.231 245.882ZM665.977 255.906C692.552 263.963 718.128 261.995 723.044 251.597C725.793 245.601 721.794 237.17 711.297 227.052C705.465 221.525 698.217 218.621 690.886 218.621C686.221 218.621 681.556 219.745 677.223 222.087C660.312 231.268 651.231 239.605 651.731 245.601C652.064 249.629 656.979 253.189 665.977 255.906Z" fill="#FF6A1D" fill-opacity="0.2"/>
<path d="M68.2305 64.6069C81.7266 54.2082 77.3112 21.1383 72.8125 0.247192H70.2299C71.3962 5.4934 72.4793 11.5827 73.3957 17.9531C75.5617 34.1602 76.2282 55.0513 66.8975 62.3585C55.9007 70.7899 33.5737 59.7354 0.416504 29.4761V33.036C25.9925 56.1755 45.4037 67.7921 58.4 67.7921C62.2322 67.7921 65.4813 66.6679 68.2305 64.6069Z" fill="#FF6A1D" fill-opacity="0.2"/>
<path fill-rule="evenodd" clip-rule="evenodd" d="M562.34 685.158C550.093 685.158 537.013 683.753 527.683 679.725C514.353 674.104 513.603 665.485 515.52 659.302C517.436 652.65 521.351 647.779 527.266 644.875C537.847 639.722 554.508 640.94 576.752 648.622C593.164 654.337 606.744 661.55 606.91 661.644C613.908 665.579 614.158 669.326 613.242 671.762C610.492 678.788 593.164 682.91 577.918 684.409C573.17 684.877 567.838 685.158 562.34 685.158ZM528.183 647.498C522.934 650.027 519.435 654.337 517.769 660.239C515.686 667.452 519.269 673.167 528.599 677.195C539.596 681.879 558.424 683.566 577.669 681.692C595.413 679.912 609.076 675.415 610.909 670.731C611.825 668.295 608.576 665.86 605.744 664.267C604.911 663.799 568.754 644.687 542.762 644.687C537.347 644.687 532.348 645.437 528.183 647.498Z" fill="#FF6A1D" fill-opacity="0.2"/>
</g>
</svg>
