<svg width="33" height="33" viewBox="0 0 33 33" fill="none" xmlns="http://www.w3.org/2000/svg">
<g clip-path="url(#clip0_756_666)">
<g clip-path="url(#clip1_756_666)">
<path fill-rule="evenodd" clip-rule="evenodd" d="M9.25041 6.53731C9.71542 6.43731 10.3804 6.42031 11.0384 6.45031C11.3644 6.46531 11.7684 6.70331 12.0764 7.24031C12.5344 8.04431 13.1674 8.95631 13.9514 9.68431C14.7244 10.4013 15.7734 11.0563 17.0374 11.0563V8.55631C16.6644 8.55631 16.1974 8.35731 15.6524 7.85131C15.1184 7.35631 14.6324 6.67631 14.2474 6.00131C13.6714 4.99131 12.6074 4.02031 11.1534 3.95331C10.4274 3.92031 9.45341 3.92131 8.63741 4.11331C8.38041 4.17331 8.14741 4.28831 7.98141 4.38031C7.78888 4.48912 7.60197 4.6076 7.42141 4.73531C7.04841 4.99531 6.62841 5.32731 6.20641 5.67831C5.36842 6.38325 4.54945 7.11051 3.75041 7.85931C3.25121 8.32679 2.89154 8.92365 2.71145 9.58344C2.53136 10.2432 2.53793 10.94 2.73041 11.5963L3.95541 15.8243C4.02857 16.077 4.15775 16.3099 4.33333 16.5058C4.50892 16.7016 4.72641 16.8554 4.96962 16.9556C5.21282 17.0559 5.4755 17.1 5.7381 17.0847C6.0007 17.0694 6.25648 16.9951 6.48641 16.8673L8.57442 15.7053V23.5853C8.57442 24.3147 8.86415 25.0141 9.37987 25.5299C9.8956 26.0456 10.5951 26.3353 11.3244 26.3353H17.0374V23.8353H11.3244C11.2581 23.8353 11.1945 23.809 11.1476 23.7621C11.1008 23.7152 11.0744 23.6516 11.0744 23.5853V14.4303C11.0745 14.1255 10.9949 13.826 10.8436 13.5614C10.6924 13.2969 10.4746 13.0764 10.212 12.9218C9.94928 12.7672 9.65079 12.6839 9.34604 12.6802C9.04128 12.6764 8.74083 12.7523 8.47441 12.9003L6.09441 14.2243L5.13241 10.9003C5.00241 10.4533 5.13241 9.98831 5.45441 9.68831C6.21905 8.97155 7.00267 8.27531 7.80441 7.60031C8.20141 7.27031 8.56142 6.98831 8.85242 6.78631C8.98054 6.69544 9.11376 6.61197 9.25141 6.53631L9.25041 6.53731ZM22.7384 6.45131C23.3304 6.42931 23.8964 6.45231 24.2784 6.54531C24.2684 6.54231 24.2694 6.54331 24.2844 6.55131C24.3234 6.57131 24.4504 6.63531 24.6824 6.80231C24.9644 7.00531 25.3004 7.28431 25.6684 7.61531C26.3951 8.27907 27.0972 8.9692 27.7734 9.68431C28.0434 9.96731 28.1534 10.3833 28.0454 10.7933L27.0854 14.4833L25.2684 13.1533C24.1124 12.3073 22.4844 13.1333 22.4844 14.5663V23.5843C22.4844 23.6506 22.4581 23.7142 22.4112 23.7611C22.3643 23.808 22.3007 23.8343 22.2344 23.8343L17.0374 23.8353V26.3353L22.2344 26.3343C22.9638 26.3343 23.6632 26.0446 24.179 25.5289C24.6947 25.0131 24.9844 24.3137 24.9844 23.5843V16.0443L26.4984 17.1543C26.7288 17.3229 26.997 17.4325 27.2795 17.4737C27.562 17.5148 27.8503 17.4862 28.1193 17.3904C28.3882 17.2945 28.6296 17.1343 28.8224 16.9237C29.0152 16.7132 29.1536 16.4586 29.2254 16.1823L30.4654 11.4223C30.6255 10.8177 30.6285 10.1822 30.4739 9.57607C30.3194 8.96999 30.0125 8.41346 29.5824 7.95931C28.862 7.19738 28.1139 6.46222 27.3394 5.75531C26.9581 5.40735 26.5589 5.07957 26.1434 4.77331C25.7994 4.52631 25.3384 4.22931 24.8654 4.11431C24.1404 3.94031 23.2954 3.92831 22.6454 3.95331C21.1474 4.00831 20.0684 5.03331 19.5084 6.08031C19.1484 6.75131 18.6994 7.41831 18.2134 7.90031C17.7114 8.39631 17.3134 8.55631 17.0374 8.55631V11.0563C18.2634 11.0563 19.2594 10.3813 19.9714 9.67631C20.6994 8.95631 21.2864 8.05531 21.7114 7.26031C22.0114 6.70231 22.4174 6.46431 22.7384 6.45131ZM13.9284 15.7693C13.9284 14.8093 14.1064 14.0333 14.3244 14.0333H16.9624C17.1804 14.0333 17.3574 14.8103 17.3574 15.7693C17.3574 16.7283 17.1804 17.5053 16.9624 17.5053H14.3244C14.1064 17.5053 13.9294 16.7283 13.9294 15.7693H13.9284Z" fill="black"/>
</g>
</g>
<defs>
<clipPath id="clip0_756_666">
<rect width="32" height="32" fill="white" transform="translate(0.330322 0.0812988)"/>
</clipPath>
<clipPath id="clip1_756_666">
<rect width="32" height="32" fill="white" transform="translate(0.330322 -1.9187)"/>
</clipPath>
</defs>
</svg>
