<svg width="19" height="19" viewBox="0 0 19 19" fill="none" xmlns="http://www.w3.org/2000/svg">
<g clip-path="url(#clip0_756_4279)">
<path d="M18.2839 8.7839C17.8884 8.7839 17.5678 9.10445 17.5678 9.5C17.5678 13.9488 13.9488 17.5678 9.5 17.5678C5.05148 17.5678 1.43216 13.9488 1.43216 9.5C1.43216 5.05148 5.05148 1.43216 9.5 1.43216C9.89551 1.43216 10.2161 1.11161 10.2161 0.7161C10.2161 0.320551 9.89551 0 9.5 0C4.26164 0 0 4.26164 0 9.5C0 14.7381 4.26164 19 9.5 19C14.7381 19 19 14.7381 19 9.5C19 9.10449 18.6794 8.7839 18.2839 8.7839Z" fill="#E0E0E0"/>
</g>
<defs>
<clipPath id="clip0_756_4279">
<rect width="19" height="19" fill="white"/>
</clipPath>
</defs>
</svg>
