<svg width="33" height="33" viewBox="0 0 33 33" fill="none" xmlns="http://www.w3.org/2000/svg">
<g clip-path="url(#clip0_756_684)">
<g clip-path="url(#clip1_756_684)">
<path fill-rule="evenodd" clip-rule="evenodd" d="M12.5223 6.95283C12.5291 6.78195 12.5013 6.61145 12.4406 6.45157C12.3799 6.29169 12.2875 6.14572 12.169 6.02242C12.0505 5.89911 11.9083 5.80101 11.7509 5.734C11.5936 5.66699 11.4243 5.63245 11.2533 5.63245C11.0823 5.63245 10.913 5.66699 10.7557 5.734C10.5984 5.80101 10.4562 5.89911 10.3377 6.02242C10.2191 6.14572 10.1268 6.29169 10.0661 6.45157C10.0053 6.61145 9.97754 6.78195 9.98432 6.95283V7.64283C9.56832 7.73983 9.17432 7.87583 8.79532 8.06983C7.60096 8.67949 6.63025 9.65159 6.02232 10.8468C5.63932 11.5998 5.47932 12.4138 5.40332 13.3398C5.33032 14.2398 5.33032 15.3518 5.33032 16.7288V19.2098C5.33032 20.5878 5.33032 21.6988 5.40332 22.5988C5.47932 23.5248 5.63932 24.3388 6.02232 25.0918C6.63031 26.287 7.601 27.2591 8.79532 27.8688C9.54732 28.2528 10.3593 28.4128 11.2853 28.4888C12.1833 28.5618 13.2923 28.5618 14.6683 28.5618H20.3943C20.9393 28.5618 21.3103 28.5618 21.6383 28.5278C23.0887 28.3765 24.4429 27.7306 25.4732 26.6987C26.5036 25.6667 27.1473 24.3115 27.2963 22.8608C27.3303 22.5338 27.3303 22.1608 27.3303 21.6158V16.7288C27.3303 15.3508 27.3303 14.2388 27.2573 13.3398C27.1813 12.4138 27.0213 11.5998 26.6383 10.8468C26.0304 9.65159 25.0597 8.67949 23.8653 8.06983C23.4879 7.87934 23.0886 7.73561 22.6763 7.64183V6.95283C22.6831 6.78195 22.6553 6.61145 22.5946 6.45157C22.5339 6.29169 22.4415 6.14572 22.323 6.02242C22.2045 5.89911 22.0623 5.80101 21.9049 5.734C21.7476 5.66699 21.5783 5.63245 21.4073 5.63245C21.2363 5.63245 21.067 5.66699 20.9097 5.734C20.7524 5.80101 20.6102 5.89911 20.4917 6.02242C20.3731 6.14572 20.2808 6.29169 20.2201 6.45157C20.1593 6.61145 20.1315 6.78195 20.1383 6.95283V7.39083C19.5063 7.37683 18.7943 7.37683 17.9923 7.37683H14.6683C13.8663 7.37683 13.1543 7.37683 12.5223 7.39083V6.95283ZM9.94732 10.3348C10.2823 10.1648 10.7233 10.0468 11.4913 9.98484C12.2743 9.91984 13.2803 9.91884 14.7223 9.91884H17.9383C19.3803 9.91884 20.3863 9.91983 21.1683 9.98383C21.9373 10.0468 22.3783 10.1638 22.7123 10.3338C23.4295 10.6996 24.0124 11.2832 24.3773 12.0008C24.5473 12.3358 24.6643 12.7778 24.7273 13.5468C24.7523 13.8528 24.7673 14.1928 24.7773 14.5798H7.88332C7.89332 14.1928 7.90732 13.8528 7.93332 13.5468C7.99532 12.7768 8.11332 12.3358 8.28332 12.0008C8.64791 11.2839 9.23103 10.7007 9.94732 10.3348ZM7.86832 17.1218V19.1558C7.86832 20.6008 7.86932 21.6078 7.93332 22.3918C7.99632 23.1608 8.11332 23.6018 8.28332 23.9378C8.64817 24.6549 9.23066 25.2381 9.94732 25.6038C10.2823 25.7738 10.7233 25.8918 11.4913 25.9538C12.2743 26.0188 13.2803 26.0198 14.7223 26.0198H20.3173C20.9683 26.0198 21.1973 26.0178 21.3773 25.9998C22.2474 25.9089 23.0597 25.5213 23.6777 24.9022C24.2958 24.283 24.6819 23.4701 24.7713 22.5998C24.7903 22.4198 24.7913 22.1898 24.7913 21.5378V17.1218H7.86832Z" fill="black"/>
</g>
</g>
<defs>
<clipPath id="clip0_756_684">
<rect width="32" height="32" fill="white" transform="translate(0.330322 0.681885)"/>
</clipPath>
<clipPath id="clip1_756_684">
<rect width="32" height="32" fill="white" transform="translate(0.330322 0.681885)"/>
</clipPath>
</defs>
</svg>
